name ./resultDataOpenSim/trcMotMarkerGrf/sub10/grf-04-08.mot
datacolumns 19
datarows 27
range 1.08000000 1.18400000
endheader

                time	     ground_force_vx	     ground_force_vy	     ground_force_vz	     ground_force_px	     ground_force_py	     ground_force_pz	   l_ground_force_vx	   l_ground_force_vy	   l_ground_force_vz	   l_ground_force_px	   l_ground_force_py	   l_ground_force_pz	     ground_torque_x	     ground_torque_y	     ground_torque_z	   l_ground_torque_x	   l_ground_torque_y	   l_ground_torque_z	
          1.08000000	          0.00000000	          0.00000000	          0.00000000	          0.00000000	          0.00000000	          0.00000000	         -6.76728513	        353.66854881	         14.49686155	         -0.04089092	         -0.07500000	         -0.02623944	          0.00000000	          0.00000000	          0.00000000	          0.00000000	         -1.36934156	          0.00000000	
          1.08400000	          0.00000000	          0.00000000	          0.00000000	          0.00000000	          0.00000000	          0.00000000	         -5.99486903	        349.73992655	         14.37935275	         -0.04026468	         -0.07500000	         -0.02576525	          0.00000000	          0.00000000	          0.00000000	          0.00000000	         -1.41609579	          0.00000000	
          1.08800000	          0.00000000	          0.00000000	          0.00000000	          0.00000000	          0.00000000	          0.00000000	         -5.04765316	        346.68979521	         14.27162826	         -0.03972327	         -0.07500000	         -0.02528867	          0.00000000	          0.00000000	          0.00000000	          0.00000000	         -1.46724098	          0.00000000	
          1.09200000	          0.00000000	          0.00000000	          0.00000000	          0.00000000	          0.00000000	          0.00000000	         -3.84894253	        344.52116194	         14.15374610	         -0.03931457	         -0.07500000	         -0.02484767	          0.00000000	          0.00000000	          0.00000000	          0.00000000	         -1.52520915	          0.00000000	
          1.09600000	          0.00000000	          0.00000000	          0.00000000	          0.00000000	          0.00000000	          0.00000000	         -2.34759176	        343.22990441	         13.99643285	         -0.03906023	         -0.07500000	         -0.02445231	          0.00000000	          0.00000000	          0.00000000	          0.00000000	         -1.59146631	          0.00000000	
          1.10000000	          0.00000000	          0.00000000	          0.00000000	          0.00000000	          0.00000000	          0.00000000	         -0.51673238	        342.80679207	         13.76724688	         -0.03895597	         -0.07500000	         -0.02410014	          0.00000000	          0.00000000	          0.00000000	          0.00000000	         -1.66639127	          0.00000000	
          1.10400000	          0.00000000	          0.00000000	          0.00000000	          0.00000000	          0.00000000	          0.00000000	          1.62998933	        343.25738220	         13.45062403	         -0.03897950	         -0.07500000	         -0.02379189	          0.00000000	          0.00000000	          0.00000000	          0.00000000	         -1.74965372	          0.00000000	
          1.10800000	          0.00000000	          0.00000000	          0.00000000	          0.00000000	          0.00000000	          0.00000000	          4.02410139	        344.62236331	         13.05588925	         -0.03912178	         -0.07500000	         -0.02354411	          0.00000000	          0.00000000	          0.00000000	          0.00000000	         -1.84087937	          0.00000000	
          1.11200000	          0.00000000	          0.00000000	          0.00000000	          0.00000000	          0.00000000	          0.00000000	          6.56942966	        346.96708220	         12.60491285	         -0.03937769	         -0.07500000	         -0.02338686	          0.00000000	          0.00000000	          0.00000000	          0.00000000	         -1.94021163	          0.00000000	
          1.11600000	          0.00000000	          0.00000000	          0.00000000	          0.00000000	          0.00000000	          0.00000000	          9.19311605	        350.35971868	         12.11707277	         -0.03974417	         -0.07500000	         -0.02332607	          0.00000000	          0.00000000	          0.00000000	          0.00000000	         -2.04848669	          0.00000000	
          1.12000000	          0.00000000	          0.00000000	          0.00000000	          0.00000000	          0.00000000	          0.00000000	         11.85737223	        354.86593318	         11.60615898	         -0.04020290	         -0.07500000	         -0.02333464	          0.00000000	          0.00000000	          0.00000000	          0.00000000	         -2.16700256	          0.00000000	
          1.12400000	          0.00000000	          0.00000000	          0.00000000	          0.00000000	          0.00000000	          0.00000000	         14.53628323	        360.57397798	         11.09073745	         -0.04069581	         -0.07500000	         -0.02336866	          0.00000000	          0.00000000	          0.00000000	          0.00000000	         -2.29706044	          0.00000000	
          1.12800000	          0.00000000	          0.00000000	          0.00000000	          0.00000000	          0.00000000	          0.00000000	         17.20727671	        367.63307567	         10.60360974	         -0.04114306	         -0.07500000	         -0.02337731	          0.00000000	          0.00000000	          0.00000000	          0.00000000	         -2.43954198	          0.00000000	
          1.13200000	          0.00000000	          0.00000000	          0.00000000	          0.00000000	          0.00000000	          0.00000000	         19.85228552	        376.23473810	         10.19127784	         -0.04147458	         -0.07500000	         -0.02332404	          0.00000000	          0.00000000	          0.00000000	          0.00000000	         -2.59475339	          0.00000000	
          1.13600000	          0.00000000	          0.00000000	          0.00000000	          0.00000000	          0.00000000	          0.00000000	         22.44728453	        386.51909095	          9.91001239	         -0.04167157	         -0.07500000	         -0.02319252	          0.00000000	          0.00000000	          0.00000000	          0.00000000	         -2.76258218	          0.00000000	
          1.14000000	          0.00000000	          0.00000000	          0.00000000	          0.00000000	          0.00000000	          0.00000000	         24.96529686	        398.51277224	          9.81797933	         -0.04176897	         -0.07500000	         -0.02298325	          0.00000000	          0.00000000	          0.00000000	          0.00000000	         -2.94279050	          0.00000000	
          1.14400000	          0.00000000	          0.00000000	          0.00000000	          0.00000000	          0.00000000	          0.00000000	         27.40469843	        412.16753012	          9.95721121	         -0.04182539	         -0.07500000	         -0.02271755	          0.00000000	          0.00000000	          0.00000000	          0.00000000	         -3.13522029	          0.00000000	
          1.14800000	          0.00000000	          0.00000000	          0.00000000	          0.00000000	          0.00000000	          0.00000000	         29.79731027	        427.42161257	         10.33283228	         -0.04187123	         -0.07500000	         -0.02242432	          0.00000000	          0.00000000	          0.00000000	          0.00000000	         -3.33981561	          0.00000000	
          1.15200000	          0.00000000	          0.00000000	          0.00000000	          0.00000000	          0.00000000	          0.00000000	         32.17829460	        444.20710286	         10.90936877	         -0.04190916	         -0.07500000	         -0.02212140	          0.00000000	          0.00000000	          0.00000000	          0.00000000	         -3.55648931	          0.00000000	
          1.15600000	          0.00000000	          0.00000000	          0.00000000	          0.00000000	          0.00000000	          0.00000000	         34.57301581	        462.43401597	         11.63317143	         -0.04194959	         -0.07500000	         -0.02182147	          0.00000000	          0.00000000	          0.00000000	          0.00000000	         -3.78490298	          0.00000000	
          1.16000000	          0.00000000	          0.00000000	          0.00000000	          0.00000000	          0.00000000	          0.00000000	         37.02733624	        481.99893566	         12.46371795	         -0.04200578	         -0.07500000	         -0.02154486	          0.00000000	          0.00000000	          0.00000000	          0.00000000	         -4.02427082	          0.00000000	
          1.16400000	          0.00000000	          0.00000000	          0.00000000	          0.00000000	          0.00000000	          0.00000000	         39.62592389	        502.80494556	         13.38792999	         -0.04209133	         -0.07500000	         -0.02131602	          0.00000000	          0.00000000	          0.00000000	          0.00000000	         -4.27332863	          0.00000000	
          1.16800000	          0.00000000	          0.00000000	          0.00000000	          0.00000000	          0.00000000	          0.00000000	         42.46234404	        524.75229675	         14.40696048	         -0.04223308	         -0.07500000	         -0.02114526	          0.00000000	          0.00000000	          0.00000000	          0.00000000	         -4.53053400	          0.00000000	
          1.17200000	          0.00000000	          0.00000000	          0.00000000	          0.00000000	          0.00000000	          0.00000000	         45.60024507	        547.71000654	         15.51087425	         -0.04243901	         -0.07500000	         -0.02101303	          0.00000000	          0.00000000	          0.00000000	          0.00000000	         -4.79440124	          0.00000000	
          1.17600000	          0.00000000	          0.00000000	          0.00000000	          0.00000000	          0.00000000	          0.00000000	         49.06647582	        571.50968898	         16.66899706	         -0.04268115	         -0.07500000	         -0.02088041	          0.00000000	          0.00000000	          0.00000000	          0.00000000	         -5.06377820	          0.00000000	
          1.18000000	          0.00000000	          0.00000000	          0.00000000	          0.00000000	          0.00000000	          0.00000000	         52.86718887	        595.94643646	         17.84172048	         -0.04290965	         -0.07500000	         -0.02071105	          0.00000000	          0.00000000	          0.00000000	          0.00000000	         -5.33792413	          0.00000000	
          1.18400000	          0.00000000	          0.00000000	          0.00000000	          0.00000000	          0.00000000	          0.00000000	         57.00527788	        620.78376567	         18.99383053	         -0.04307573	         -0.07500000	         -0.02049098	          0.00000000	          0.00000000	          0.00000000	          0.00000000	         -5.61635330	          0.00000000	
